<svg height="511pt" viewBox="-175 1 511 511.999" width="511pt" xmlns="http://www.w3.org/2000/svg"><path d="m111.214844 467.328125c-11.695313-8.066406-18.671875-21.363281-18.671875-35.566406v-98.421875c-8.410157 0-14.832031 0-23.242188 0v98.421875c0 14.203125-6.980469 27.5-18.671875 35.566406l-28.167968 20.464844h116.921874zm0 0" fill="#d7f7ff"/><path d="m93.023438 438.078125c-.304688-2.078125-.480469-4.183594-.480469-6.316406v-98.421875c-8.410157 0-14.832031 0-23.242188 0v98.421875c0 14.203125-6.980469 27.5-18.671875 35.566406l-28.167968 20.464844h24.203124l28.171876-20.464844c9.933593-6.855469 16.449218-17.492187 18.1875-29.25zm0 0" fill="#b7e9f9"/><path d="m92.054688 305.109375h-22.265626c-5.257812 0-10.148437-1.625-14.105468-4.382813v22.632813c0 7.1875 5.882812 13.070313 13.074218 13.070313h24.328126c7.191406 0 13.074218-5.882813 13.074218-13.070313v-22.632813c-3.957031 2.757813-8.847656 4.382813-14.105468 4.382813zm0 0" fill="#fdbd40"/><path d="m85.046875 323.359375v-18.25h-15.261719c-5.253906 0-10.148437-1.625-14.101562-4.382813v22.632813c0 7.1875 5.882812 13.070313 13.074218 13.070313h24.328126c.859374 0 1.699218-.085938 2.515624-.25-5.996093-1.179688-10.554687-6.492188-10.554687-12.820313zm0 0" fill="#f2aa2a"/><path d="m147.054688 486.761719h-132.265626c-4.9375 0-8.941406 4.003906-8.941406 8.941406v7.355469c0 4.9375 4 8.941406 8.941406 8.941406h132.265626c4.941406 0 8.941406-4.003906 8.941406-8.941406v-7.355469c0-4.9375-4.003906-8.941406-8.941406-8.941406zm0 0" fill="#b7e9f9"/><path d="m147.054688 497.320312h-132.265626c-3.632812 0-6.75-2.167968-8.152343-5.28125-.503907 1.121094-.789063 2.359376-.789063 3.664063v7.355469c0 4.9375 4 8.941406 8.941406 8.941406h132.265626c4.941406 0 8.941406-4.003906 8.941406-8.941406v-7.355469c0-1.304687-.285156-2.542969-.789063-3.664063-1.402343 3.113282-4.519531 5.28125-8.152343 5.28125zm0 0" fill="#87cee9"/><path d="m154.433594 0h-147.027344c-4.222656 0-7.4570312 3.5-6.828125 7.386719l45.929687 283.203125c1.738282 10.71875 11.632813 18.640625 23.277344 18.640625h22.269532c11.648437 0 21.542968-7.921875 23.28125-18.640625l45.929687-283.203125c.628906-3.886719-2.605469-7.386719-6.832031-7.386719zm0 0" fill="#d7f7ff"/><path d="m82.566406 290.589844-45.929687-283.203125c-.628907-3.886719 2.605469-7.386719 6.828125-7.386719h-36.058594c-4.222656 0-7.4570312 3.5-6.828125 7.386719l45.929687 283.203125c1.738282 10.71875 11.632813 18.640625 23.277344 18.640625h22.269532c2.394531 0 4.707031-.351563 6.894531-.976563-8.464844-2.414062-15.003907-9.148437-16.382813-17.664062zm0 0" fill="#b7e9f9"/><path d="m147.636719 91.410156s-30.347657 19.386719-66.714844 0c-36.367187-19.382812-66.714844 0-66.714844 0l32.300781 199.179688c1.738282 10.71875 11.632813 18.640625 23.277344 18.640625h22.269532c11.648437 0 21.542968-7.921875 23.28125-18.640625zm0 0" fill="#ffd782"/><path d="m98.949219 308.253906c-8.464844-2.414062-15.003907-9.148437-16.382813-17.664062l-33.695312-207.769532c-20.53125-.425781-34.664063 8.589844-34.664063 8.589844l32.300781 199.179688c1.738282 10.722656 11.636719 18.640625 23.277344 18.640625h22.269532c3.132812 0 5.464843-.617188 6.894531-.976563zm0 0" fill="#fdbd40"/><path d="m93.664062 225.910156c-1.957031-8.792968-10.671874-14.332031-19.460937-12.375-8.792969 1.960938-14.332031 10.671875-12.375 19.464844 1.960937 8.792969 10.671875 14.332031 19.464844 12.371094 8.792969-1.957032 14.332031-10.671875 12.371093-19.460938zm0 0" fill="#fdbd40"/><path d="m75.261719 245.558594-4.960938-30.597656c-6.449219 3.304687-10.125 10.636718-8.476562 18.035156 1.503906 6.75 6.992187 11.570312 13.4375 12.5625zm0 0" fill="#f2aa2a"/><g fill="#fdbd40"><path d="m110.628906 159.011719c-1.414062-6.359375-7.71875-10.367188-14.082031-8.953125-6.359375 1.417968-10.367187 7.722656-8.949219 14.082031 1.417969 6.359375 7.71875 10.367187 14.082032 8.953125 6.359374-1.417969 10.367187-7.722656 8.949218-14.082031zm0 0"/><path d="m63.386719 146.605469c-4.316407 0-7.726563-3.523438-7.726563-7.726563 0-4.304687 3.484375-7.726562 7.726563-7.726562 4.292969 0 7.730469 3.503906 7.730469 7.726562 0 4.328125-3.5625 7.726563-7.730469 7.726563zm0 0"/></g></svg>